<svg width="290" height="37" viewBox="0 0 290 37" fill="none" xmlns="http://www.w3.org/2000/svg">
<g filter="url(#filter0_dd_1_2617)">
<rect x="3" y="3" width="283.529" height="29" rx="10" fill="white"/>
<rect width="24" height="24" transform="translate(18 5.5)" fill="white"/>
<path fill-rule="evenodd" clip-rule="evenodd" d="M41.04 17.7614C41.04 16.9459 40.9668 16.1618 40.8309 15.4091H30V19.8575H36.1891C35.9225 21.295 35.1123 22.513 33.8943 23.3284V26.2139H37.6109C39.7855 24.2118 41.04 21.2636 41.04 17.7614Z" fill="#4285F4"/>
<path fill-rule="evenodd" clip-rule="evenodd" d="M29.9999 28.9998C33.1049 28.9998 35.7081 27.9701 37.6108 26.2137L33.8942 23.3283C32.8645 24.0183 31.5472 24.426 29.9999 24.426C27.0047 24.426 24.4695 22.403 23.5651 19.6848H19.7231V22.6644C21.6154 26.4228 25.5045 28.9998 29.9999 28.9998Z" fill="#34A853"/>
<path fill-rule="evenodd" clip-rule="evenodd" d="M23.5652 19.6851C23.3352 18.9951 23.2045 18.258 23.2045 17.5001C23.2045 16.7421 23.3352 16.0051 23.5652 15.3151V12.3355H19.7232C18.9443 13.888 18.5 15.6444 18.5 17.5001C18.5 19.3557 18.9443 21.1121 19.7232 22.6646L23.5652 19.6851Z" fill="#FBBC05"/>
<path fill-rule="evenodd" clip-rule="evenodd" d="M29.9999 10.5739C31.6883 10.5739 33.2042 11.1541 34.3961 12.2936L37.6945 8.99523C35.7029 7.13955 33.0997 6 29.9999 6C25.5045 6 21.6154 8.57705 19.7231 12.3355L23.5651 15.315C24.4695 12.5968 27.0047 10.5739 29.9999 10.5739Z" fill="#EA4335"/>
<path d="M67.3516 22.0566V24H60.2129V22.0566H67.3516ZM60.8965 9.78125V24H58.4453V9.78125H60.8965ZM68.5625 18.834V18.6094C68.5625 17.8477 68.6732 17.1413 68.8945 16.4902C69.1159 15.8327 69.4349 15.263 69.8516 14.7812C70.2747 14.293 70.7891 13.9154 71.3945 13.6484C72.0065 13.375 72.6966 13.2383 73.4648 13.2383C74.2396 13.2383 74.9297 13.375 75.5352 13.6484C76.1471 13.9154 76.6647 14.293 77.0879 14.7812C77.5111 15.263 77.8333 15.8327 78.0547 16.4902C78.276 17.1413 78.3867 17.8477 78.3867 18.6094V18.834C78.3867 19.5957 78.276 20.3021 78.0547 20.9531C77.8333 21.6042 77.5111 22.1738 77.0879 22.6621C76.6647 23.1439 76.1504 23.5215 75.5449 23.7949C74.9395 24.0618 74.2526 24.1953 73.4844 24.1953C72.7096 24.1953 72.0163 24.0618 71.4043 23.7949C70.7988 23.5215 70.2845 23.1439 69.8613 22.6621C69.4382 22.1738 69.1159 21.6042 68.8945 20.9531C68.6732 20.3021 68.5625 19.5957 68.5625 18.834ZM70.916 18.6094V18.834C70.916 19.3092 70.9648 19.7585 71.0625 20.1816C71.1602 20.6048 71.3132 20.9759 71.5215 21.2949C71.7298 21.6139 71.9967 21.8646 72.3223 22.0469C72.6478 22.2292 73.0352 22.3203 73.4844 22.3203C73.9206 22.3203 74.2982 22.2292 74.6172 22.0469C74.9427 21.8646 75.2096 21.6139 75.418 21.2949C75.6263 20.9759 75.7793 20.6048 75.877 20.1816C75.9811 19.7585 76.0332 19.3092 76.0332 18.834V18.6094C76.0332 18.1406 75.9811 17.6979 75.877 17.2812C75.7793 16.8581 75.623 16.4837 75.4082 16.1582C75.1999 15.8327 74.9329 15.5788 74.6074 15.3965C74.2884 15.2077 73.9076 15.1133 73.4648 15.1133C73.0221 15.1133 72.638 15.2077 72.3125 15.3965C71.9935 15.5788 71.7298 15.8327 71.5215 16.1582C71.3132 16.4837 71.1602 16.8581 71.0625 17.2812C70.9648 17.6979 70.916 18.1406 70.916 18.6094ZM87.127 13.4336H89.2656V23.707C89.2656 24.6576 89.0638 25.4648 88.6602 26.1289C88.2565 26.793 87.6934 27.2975 86.9707 27.6426C86.248 27.9941 85.4115 28.1699 84.4609 28.1699C84.0573 28.1699 83.6081 28.1113 83.1133 27.9941C82.625 27.877 82.1497 27.6882 81.6875 27.4277C81.2318 27.1738 80.8509 26.8385 80.5449 26.4219L81.6484 25.0352C82.026 25.4844 82.4427 25.8132 82.8984 26.0215C83.3542 26.2298 83.8327 26.334 84.334 26.334C84.8743 26.334 85.3333 26.2331 85.7109 26.0312C86.0951 25.8359 86.3913 25.5462 86.5996 25.1621C86.8079 24.778 86.9121 24.3092 86.9121 23.7559V15.8262L87.127 13.4336ZM79.9492 18.834V18.6289C79.9492 17.8281 80.0469 17.099 80.2422 16.4414C80.4375 15.7773 80.7174 15.2077 81.082 14.7324C81.4466 14.2507 81.8893 13.8828 82.4102 13.6289C82.931 13.3685 83.5202 13.2383 84.1777 13.2383C84.8613 13.2383 85.444 13.362 85.9258 13.6094C86.4141 13.8568 86.821 14.2116 87.1465 14.6738C87.472 15.1296 87.7259 15.6764 87.9082 16.3145C88.097 16.946 88.237 17.6491 88.3281 18.4238V19.0781C88.2435 19.8333 88.1003 20.5234 87.8984 21.1484C87.6966 21.7734 87.4297 22.3138 87.0977 22.7695C86.7656 23.2253 86.3555 23.5768 85.8672 23.8242C85.3854 24.0716 84.8158 24.1953 84.1582 24.1953C83.5137 24.1953 82.931 24.0618 82.4102 23.7949C81.8958 23.528 81.4531 23.1536 81.082 22.6719C80.7174 22.1901 80.4375 21.6237 80.2422 20.9727C80.0469 20.3151 79.9492 19.6022 79.9492 18.834ZM82.3027 18.6289V18.834C82.3027 19.3158 82.3483 19.765 82.4395 20.1816C82.5371 20.5983 82.6836 20.9661 82.8789 21.2852C83.0807 21.5977 83.3346 21.8451 83.6406 22.0273C83.9531 22.2031 84.321 22.291 84.7441 22.291C85.2975 22.291 85.75 22.1738 86.1016 21.9395C86.4596 21.7051 86.7331 21.3893 86.9219 20.9922C87.1172 20.5885 87.2539 20.1393 87.332 19.6445V17.877C87.293 17.4928 87.2116 17.1348 87.0879 16.8027C86.9707 16.4707 86.8112 16.181 86.6094 15.9336C86.4076 15.6797 86.1536 15.4844 85.8477 15.3477C85.5417 15.2044 85.1803 15.1328 84.7637 15.1328C84.3405 15.1328 83.9727 15.224 83.6602 15.4062C83.3477 15.5885 83.0905 15.8392 82.8887 16.1582C82.6934 16.4772 82.5469 16.8483 82.4492 17.2715C82.3516 17.6947 82.3027 18.1471 82.3027 18.6289ZM99.5391 9.78125V24H97.0879V9.78125H99.5391ZM104.686 15.6895V24H102.332V13.4336H104.549L104.686 15.6895ZM104.266 18.3262L103.504 18.3164C103.51 17.5677 103.615 16.8809 103.816 16.2559C104.025 15.6309 104.311 15.0938 104.676 14.6445C105.047 14.1953 105.49 13.8503 106.004 13.6094C106.518 13.362 107.091 13.2383 107.723 13.2383C108.23 13.2383 108.689 13.3099 109.1 13.4531C109.516 13.5898 109.871 13.8145 110.164 14.127C110.464 14.4395 110.691 14.8464 110.848 15.3477C111.004 15.8424 111.082 16.4512 111.082 17.1738V24H108.719V17.1641C108.719 16.6562 108.644 16.2559 108.494 15.9629C108.351 15.6634 108.139 15.4518 107.859 15.3281C107.586 15.1979 107.244 15.1328 106.834 15.1328C106.43 15.1328 106.069 15.2174 105.75 15.3867C105.431 15.556 105.161 15.7871 104.939 16.0801C104.725 16.373 104.559 16.7116 104.441 17.0957C104.324 17.4798 104.266 17.89 104.266 18.3262ZM121.336 21.6562L123.777 13.4336H125.281L124.871 15.8945L122.41 24H121.062L121.336 21.6562ZM119.9 13.4336L121.805 21.6953L121.961 24H120.457L117.596 13.4336H119.9ZM127.566 21.5977L129.412 13.4336H131.707L128.855 24H127.352L127.566 21.5977ZM125.535 13.4336L127.947 21.5586L128.25 24H126.902L124.412 15.8848L124.002 13.4336H125.535ZM135.828 13.4336V24H133.465V13.4336H135.828ZM133.309 10.6602C133.309 10.3021 133.426 10.0059 133.66 9.77148C133.901 9.5306 134.233 9.41016 134.656 9.41016C135.073 9.41016 135.402 9.5306 135.643 9.77148C135.883 10.0059 136.004 10.3021 136.004 10.6602C136.004 11.0117 135.883 11.3047 135.643 11.5391C135.402 11.7734 135.073 11.8906 134.656 11.8906C134.233 11.8906 133.901 11.7734 133.66 11.5391C133.426 11.3047 133.309 11.0117 133.309 10.6602ZM143.25 13.4336V15.1523H137.293V13.4336H143.25ZM139.012 10.8457H141.365V21.0801C141.365 21.4056 141.411 21.6562 141.502 21.832C141.6 22.0013 141.733 22.1152 141.902 22.1738C142.072 22.2324 142.27 22.2617 142.498 22.2617C142.661 22.2617 142.817 22.252 142.967 22.2324C143.117 22.2129 143.237 22.1934 143.328 22.1738L143.338 23.9707C143.143 24.0293 142.915 24.0814 142.654 24.127C142.4 24.1725 142.107 24.1953 141.775 24.1953C141.235 24.1953 140.757 24.1009 140.34 23.9121C139.923 23.7168 139.598 23.401 139.363 22.9648C139.129 22.5286 139.012 21.9492 139.012 21.2266V10.8457ZM147.391 9V24H145.047V9H147.391ZM146.98 18.3262L146.219 18.3164C146.225 17.5872 146.326 16.9134 146.521 16.2949C146.723 15.6764 147.003 15.1393 147.361 14.6836C147.726 14.2214 148.162 13.8665 148.67 13.6191C149.178 13.3652 149.741 13.2383 150.359 13.2383C150.88 13.2383 151.349 13.3099 151.766 13.4531C152.189 13.5964 152.553 13.8275 152.859 14.1465C153.165 14.459 153.396 14.8691 153.553 15.377C153.715 15.8783 153.797 16.4902 153.797 17.2129V24H151.434V17.1934C151.434 16.6855 151.359 16.2819 151.209 15.9824C151.066 15.6829 150.854 15.4681 150.574 15.3379C150.294 15.2012 149.952 15.1328 149.549 15.1328C149.126 15.1328 148.751 15.2174 148.426 15.3867C148.107 15.556 147.84 15.7871 147.625 16.0801C147.41 16.373 147.247 16.7116 147.137 17.0957C147.033 17.4798 146.98 17.89 146.98 18.3262ZM172.312 16.7344V22.1641C172.111 22.431 171.795 22.724 171.365 23.043C170.942 23.3555 170.379 23.6257 169.676 23.8535C168.973 24.0814 168.097 24.1953 167.049 24.1953C166.157 24.1953 165.34 24.0456 164.598 23.7461C163.855 23.4401 163.214 22.9941 162.674 22.4082C162.14 21.8223 161.727 21.1094 161.434 20.2695C161.141 19.4232 160.994 18.4596 160.994 17.3789V16.3926C160.994 15.3184 161.128 14.3613 161.395 13.5215C161.668 12.6751 162.059 11.959 162.566 11.373C163.074 10.7871 163.686 10.3444 164.402 10.0449C165.125 9.73893 165.942 9.58594 166.854 9.58594C168.019 9.58594 168.982 9.78125 169.744 10.1719C170.512 10.556 171.105 11.0898 171.521 11.7734C171.938 12.457 172.202 13.2383 172.312 14.1172H169.91C169.832 13.6224 169.679 13.1797 169.451 12.7891C169.23 12.3984 168.911 12.0924 168.494 11.8711C168.084 11.6432 167.55 11.5293 166.893 11.5293C166.326 11.5293 165.828 11.6367 165.398 11.8516C164.969 12.0664 164.611 12.3822 164.324 12.7988C164.044 13.2155 163.833 13.7233 163.689 14.3223C163.546 14.9212 163.475 15.6048 163.475 16.373V17.3789C163.475 18.1602 163.556 18.8535 163.719 19.459C163.888 20.0645 164.129 20.5755 164.441 20.9922C164.76 21.4089 165.148 21.7246 165.604 21.9395C166.059 22.1478 166.574 22.252 167.146 22.252C167.706 22.252 168.165 22.2064 168.523 22.1152C168.882 22.0176 169.165 21.9036 169.373 21.7734C169.588 21.6367 169.754 21.5065 169.871 21.3828V18.5605H166.912V16.7344H172.312ZM174.344 18.834V18.6094C174.344 17.8477 174.454 17.1413 174.676 16.4902C174.897 15.8327 175.216 15.263 175.633 14.7812C176.056 14.293 176.57 13.9154 177.176 13.6484C177.788 13.375 178.478 13.2383 179.246 13.2383C180.021 13.2383 180.711 13.375 181.316 13.6484C181.928 13.9154 182.446 14.293 182.869 14.7812C183.292 15.263 183.615 15.8327 183.836 16.4902C184.057 17.1413 184.168 17.8477 184.168 18.6094V18.834C184.168 19.5957 184.057 20.3021 183.836 20.9531C183.615 21.6042 183.292 22.1738 182.869 22.6621C182.446 23.1439 181.932 23.5215 181.326 23.7949C180.721 24.0618 180.034 24.1953 179.266 24.1953C178.491 24.1953 177.798 24.0618 177.186 23.7949C176.58 23.5215 176.066 23.1439 175.643 22.6621C175.219 22.1738 174.897 21.6042 174.676 20.9531C174.454 20.3021 174.344 19.5957 174.344 18.834ZM176.697 18.6094V18.834C176.697 19.3092 176.746 19.7585 176.844 20.1816C176.941 20.6048 177.094 20.9759 177.303 21.2949C177.511 21.6139 177.778 21.8646 178.104 22.0469C178.429 22.2292 178.816 22.3203 179.266 22.3203C179.702 22.3203 180.079 22.2292 180.398 22.0469C180.724 21.8646 180.991 21.6139 181.199 21.2949C181.408 20.9759 181.561 20.6048 181.658 20.1816C181.762 19.7585 181.814 19.3092 181.814 18.834V18.6094C181.814 18.1406 181.762 17.6979 181.658 17.2812C181.561 16.8581 181.404 16.4837 181.189 16.1582C180.981 15.8327 180.714 15.5788 180.389 15.3965C180.07 15.2077 179.689 15.1133 179.246 15.1133C178.803 15.1133 178.419 15.2077 178.094 15.3965C177.775 15.5788 177.511 15.8327 177.303 16.1582C177.094 16.4837 176.941 16.8581 176.844 17.2812C176.746 17.6979 176.697 18.1406 176.697 18.6094ZM185.691 18.834V18.6094C185.691 17.8477 185.802 17.1413 186.023 16.4902C186.245 15.8327 186.564 15.263 186.98 14.7812C187.404 14.293 187.918 13.9154 188.523 13.6484C189.135 13.375 189.826 13.2383 190.594 13.2383C191.368 13.2383 192.059 13.375 192.664 13.6484C193.276 13.9154 193.794 14.293 194.217 14.7812C194.64 15.263 194.962 15.8327 195.184 16.4902C195.405 17.1413 195.516 17.8477 195.516 18.6094V18.834C195.516 19.5957 195.405 20.3021 195.184 20.9531C194.962 21.6042 194.64 22.1738 194.217 22.6621C193.794 23.1439 193.279 23.5215 192.674 23.7949C192.068 24.0618 191.382 24.1953 190.613 24.1953C189.839 24.1953 189.145 24.0618 188.533 23.7949C187.928 23.5215 187.413 23.1439 186.99 22.6621C186.567 22.1738 186.245 21.6042 186.023 20.9531C185.802 20.3021 185.691 19.5957 185.691 18.834ZM188.045 18.6094V18.834C188.045 19.3092 188.094 19.7585 188.191 20.1816C188.289 20.6048 188.442 20.9759 188.65 21.2949C188.859 21.6139 189.126 21.8646 189.451 22.0469C189.777 22.2292 190.164 22.3203 190.613 22.3203C191.049 22.3203 191.427 22.2292 191.746 22.0469C192.072 21.8646 192.339 21.6139 192.547 21.2949C192.755 20.9759 192.908 20.6048 193.006 20.1816C193.11 19.7585 193.162 19.3092 193.162 18.834V18.6094C193.162 18.1406 193.11 17.6979 193.006 17.2812C192.908 16.8581 192.752 16.4837 192.537 16.1582C192.329 15.8327 192.062 15.5788 191.736 15.3965C191.417 15.2077 191.036 15.1133 190.594 15.1133C190.151 15.1133 189.767 15.2077 189.441 15.3965C189.122 15.5788 188.859 15.8327 188.65 16.1582C188.442 16.4837 188.289 16.8581 188.191 17.2812C188.094 17.6979 188.045 18.1406 188.045 18.6094ZM204.256 13.4336H206.395V23.707C206.395 24.6576 206.193 25.4648 205.789 26.1289C205.385 26.793 204.822 27.2975 204.1 27.6426C203.377 27.9941 202.54 28.1699 201.59 28.1699C201.186 28.1699 200.737 28.1113 200.242 27.9941C199.754 27.877 199.279 27.6882 198.816 27.4277C198.361 27.1738 197.98 26.8385 197.674 26.4219L198.777 25.0352C199.155 25.4844 199.572 25.8132 200.027 26.0215C200.483 26.2298 200.962 26.334 201.463 26.334C202.003 26.334 202.462 26.2331 202.84 26.0312C203.224 25.8359 203.52 25.5462 203.729 25.1621C203.937 24.778 204.041 24.3092 204.041 23.7559V15.8262L204.256 13.4336ZM197.078 18.834V18.6289C197.078 17.8281 197.176 17.099 197.371 16.4414C197.566 15.7773 197.846 15.2077 198.211 14.7324C198.576 14.2507 199.018 13.8828 199.539 13.6289C200.06 13.3685 200.649 13.2383 201.307 13.2383C201.99 13.2383 202.573 13.362 203.055 13.6094C203.543 13.8568 203.95 14.2116 204.275 14.6738C204.601 15.1296 204.855 15.6764 205.037 16.3145C205.226 16.946 205.366 17.6491 205.457 18.4238V19.0781C205.372 19.8333 205.229 20.5234 205.027 21.1484C204.826 21.7734 204.559 22.3138 204.227 22.7695C203.895 23.2253 203.484 23.5768 202.996 23.8242C202.514 24.0716 201.945 24.1953 201.287 24.1953C200.643 24.1953 200.06 24.0618 199.539 23.7949C199.025 23.528 198.582 23.1536 198.211 22.6719C197.846 22.1901 197.566 21.6237 197.371 20.9727C197.176 20.3151 197.078 19.6022 197.078 18.834ZM199.432 18.6289V18.834C199.432 19.3158 199.477 19.765 199.568 20.1816C199.666 20.5983 199.812 20.9661 200.008 21.2852C200.21 21.5977 200.464 21.8451 200.77 22.0273C201.082 22.2031 201.45 22.291 201.873 22.291C202.426 22.291 202.879 22.1738 203.23 21.9395C203.589 21.7051 203.862 21.3893 204.051 20.9922C204.246 20.5885 204.383 20.1393 204.461 19.6445V17.877C204.422 17.4928 204.34 17.1348 204.217 16.8027C204.1 16.4707 203.94 16.181 203.738 15.9336C203.536 15.6797 203.283 15.4844 202.977 15.3477C202.671 15.2044 202.309 15.1328 201.893 15.1328C201.469 15.1328 201.102 15.224 200.789 15.4062C200.477 15.5885 200.219 15.8392 200.018 16.1582C199.822 16.4772 199.676 16.8483 199.578 17.2715C199.48 17.6947 199.432 18.1471 199.432 18.6289ZM211.355 9V24H208.992V9H211.355ZM218.592 24.1953C217.811 24.1953 217.104 24.0684 216.473 23.8145C215.848 23.554 215.314 23.1927 214.871 22.7305C214.435 22.2682 214.1 21.7246 213.865 21.0996C213.631 20.4746 213.514 19.8008 213.514 19.0781V18.6875C213.514 17.8607 213.634 17.112 213.875 16.4414C214.116 15.7708 214.451 15.1979 214.881 14.7227C215.311 14.2409 215.818 13.873 216.404 13.6191C216.99 13.3652 217.625 13.2383 218.309 13.2383C219.064 13.2383 219.725 13.3652 220.291 13.6191C220.857 13.873 221.326 14.2311 221.697 14.6934C222.075 15.1491 222.355 15.6927 222.537 16.3242C222.726 16.9557 222.82 17.6523 222.82 18.4141V19.4199H214.656V17.7305H220.496V17.5449C220.483 17.1217 220.398 16.7246 220.242 16.3535C220.092 15.9824 219.861 15.6829 219.549 15.4551C219.236 15.2272 218.82 15.1133 218.299 15.1133C217.908 15.1133 217.56 15.1979 217.254 15.3672C216.954 15.5299 216.704 15.7676 216.502 16.0801C216.3 16.3926 216.144 16.7702 216.033 17.2129C215.929 17.6491 215.877 18.1406 215.877 18.6875V19.0781C215.877 19.5404 215.939 19.9701 216.062 20.3672C216.193 20.7578 216.382 21.0996 216.629 21.3926C216.876 21.6855 217.176 21.9167 217.527 22.0859C217.879 22.2487 218.279 22.3301 218.729 22.3301C219.295 22.3301 219.799 22.2161 220.242 21.9883C220.685 21.7604 221.069 21.4382 221.395 21.0215L222.635 22.2227C222.407 22.5547 222.111 22.8737 221.746 23.1797C221.382 23.4792 220.936 23.7233 220.408 23.9121C219.887 24.1009 219.282 24.1953 218.592 24.1953Z" fill="black" fill-opacity="0.54"/>
</g>
<defs>
<filter id="filter0_dd_1_2617" x="0" y="0" width="289.529" height="37" filterUnits="userSpaceOnUse" color-interpolation-filters="sRGB">
<feFlood flood-opacity="0" result="BackgroundImageFix"/>
<feColorMatrix in="SourceAlpha" type="matrix" values="0 0 0 0 0 0 0 0 0 0 0 0 0 0 0 0 0 0 127 0" result="hardAlpha"/>
<feOffset dy="2"/>
<feGaussianBlur stdDeviation="1.5"/>
<feColorMatrix type="matrix" values="0 0 0 0 0 0 0 0 0 0 0 0 0 0 0 0 0 0 0.168 0"/>
<feBlend mode="normal" in2="BackgroundImageFix" result="effect1_dropShadow_1_2617"/>
<feColorMatrix in="SourceAlpha" type="matrix" values="0 0 0 0 0 0 0 0 0 0 0 0 0 0 0 0 0 0 127 0" result="hardAlpha"/>
<feOffset/>
<feGaussianBlur stdDeviation="1.5"/>
<feColorMatrix type="matrix" values="0 0 0 0 0 0 0 0 0 0 0 0 0 0 0 0 0 0 0.084 0"/>
<feBlend mode="normal" in2="effect1_dropShadow_1_2617" result="effect2_dropShadow_1_2617"/>
<feBlend mode="normal" in="SourceGraphic" in2="effect2_dropShadow_1_2617" result="shape"/>
</filter>
</defs>
</svg>
